<svg height="1303.498046875" version="1.1" width="581.66015625" xmlns="http://www.w3.org/2000/svg" xmlns:xlink="http://www.w3.org/1999/xlink" style="overflow: hidden; position: relative;" viewBox="0 0 581.66015625 1303.498046875" preserveAspectRatio="xMidYMid meet"><desc style="-webkit-tap-highlight-color: rgba(0, 0, 0, 0);">Created with Raphaël 2.1.4</desc><defs style="-webkit-tap-highlight-color: rgba(0, 0, 0, 0);"><path stroke-linecap="round" d="M5,0 0,2.5 5,5z" id="raphael-marker-block" style="-webkit-tap-highlight-color: rgba(0, 0, 0, 0);"></path><marker id="raphael-marker-endblock33-obj24" markerHeight="3" markerWidth="3" orient="auto" refX="1.5" refY="1.5" style="-webkit-tap-highlight-color: rgba(0, 0, 0, 0);"><use xlink:href="#raphael-marker-block" transform="rotate(180 1.5 1.5) scale(0.6,0.6)" stroke-width="1.6667" fill="black" stroke="none" style="-webkit-tap-highlight-color: rgba(0, 0, 0, 0);"></use></marker><marker id="raphael-marker-endblock33-obj25" markerHeight="3" markerWidth="3" orient="auto" refX="1.5" refY="1.5" style="-webkit-tap-highlight-color: rgba(0, 0, 0, 0);"><use xlink:href="#raphael-marker-block" transform="rotate(180 1.5 1.5) scale(0.6,0.6)" stroke-width="1.6667" fill="black" stroke="none" style="-webkit-tap-highlight-color: rgba(0, 0, 0, 0);"></use></marker><marker id="raphael-marker-endblock33-obj26" markerHeight="3" markerWidth="3" orient="auto" refX="1.5" refY="1.5" style="-webkit-tap-highlight-color: rgba(0, 0, 0, 0);"><use xlink:href="#raphael-marker-block" transform="rotate(180 1.5 1.5) scale(0.6,0.6)" stroke-width="1.6667" fill="black" stroke="none" style="-webkit-tap-highlight-color: rgba(0, 0, 0, 0);"></use></marker><marker id="raphael-marker-endblock33-obj27" markerHeight="3" markerWidth="3" orient="auto" refX="1.5" refY="1.5" style="-webkit-tap-highlight-color: rgba(0, 0, 0, 0);"><use xlink:href="#raphael-marker-block" transform="rotate(180 1.5 1.5) scale(0.6,0.6)" stroke-width="1.6667" fill="black" stroke="none" style="-webkit-tap-highlight-color: rgba(0, 0, 0, 0);"></use></marker><marker id="raphael-marker-endblock33-obj28" markerHeight="3" markerWidth="3" orient="auto" refX="1.5" refY="1.5" style="-webkit-tap-highlight-color: rgba(0, 0, 0, 0);"><use xlink:href="#raphael-marker-block" transform="rotate(180 1.5 1.5) scale(0.6,0.6)" stroke-width="1.6667" fill="black" stroke="none" style="-webkit-tap-highlight-color: rgba(0, 0, 0, 0);"></use></marker><marker id="raphael-marker-endblock33-obj30" markerHeight="3" markerWidth="3" orient="auto" refX="1.5" refY="1.5" style="-webkit-tap-highlight-color: rgba(0, 0, 0, 0);"><use xlink:href="#raphael-marker-block" transform="rotate(180 1.5 1.5) scale(0.6,0.6)" stroke-width="1.6667" fill="black" stroke="none" style="-webkit-tap-highlight-color: rgba(0, 0, 0, 0);"></use></marker><marker id="raphael-marker-endblock33-obj32" markerHeight="3" markerWidth="3" orient="auto" refX="1.5" refY="1.5" style="-webkit-tap-highlight-color: rgba(0, 0, 0, 0);"><use xlink:href="#raphael-marker-block" transform="rotate(180 1.5 1.5) scale(0.6,0.6)" stroke-width="1.6667" fill="black" stroke="none" style="-webkit-tap-highlight-color: rgba(0, 0, 0, 0);"></use></marker><marker id="raphael-marker-endblock33-obj33" markerHeight="3" markerWidth="3" orient="auto" refX="1.5" refY="1.5" style="-webkit-tap-highlight-color: rgba(0, 0, 0, 0);"><use xlink:href="#raphael-marker-block" transform="rotate(180 1.5 1.5) scale(0.6,0.6)" stroke-width="1.6667" fill="black" stroke="none" style="-webkit-tap-highlight-color: rgba(0, 0, 0, 0);"></use></marker><marker id="raphael-marker-endblock33-obj34" markerHeight="3" markerWidth="3" orient="auto" refX="1.5" refY="1.5" style="-webkit-tap-highlight-color: rgba(0, 0, 0, 0);"><use xlink:href="#raphael-marker-block" transform="rotate(180 1.5 1.5) scale(0.6,0.6)" stroke-width="1.6667" fill="black" stroke="none" style="-webkit-tap-highlight-color: rgba(0, 0, 0, 0);"></use></marker><marker id="raphael-marker-endblock33-obj36" markerHeight="3" markerWidth="3" orient="auto" refX="1.5" refY="1.5" style="-webkit-tap-highlight-color: rgba(0, 0, 0, 0);"><use xlink:href="#raphael-marker-block" transform="rotate(180 1.5 1.5) scale(0.6,0.6)" stroke-width="1.6667" fill="black" stroke="none" style="-webkit-tap-highlight-color: rgba(0, 0, 0, 0);"></use></marker><marker id="raphael-marker-endblock33-obj38" markerHeight="3" markerWidth="3" orient="auto" refX="1.5" refY="1.5" style="-webkit-tap-highlight-color: rgba(0, 0, 0, 0);"><use xlink:href="#raphael-marker-block" transform="rotate(180 1.5 1.5) scale(0.6,0.6)" stroke-width="1.6667" fill="black" stroke="none" style="-webkit-tap-highlight-color: rgba(0, 0, 0, 0);"></use></marker><marker id="raphael-marker-endblock33-obj39" markerHeight="3" markerWidth="3" orient="auto" refX="1.5" refY="1.5" style="-webkit-tap-highlight-color: rgba(0, 0, 0, 0);"><use xlink:href="#raphael-marker-block" transform="rotate(180 1.5 1.5) scale(0.6,0.6)" stroke-width="1.6667" fill="black" stroke="none" style="-webkit-tap-highlight-color: rgba(0, 0, 0, 0);"></use></marker><marker id="raphael-marker-endblock33-obj40" markerHeight="3" markerWidth="3" orient="auto" refX="1.5" refY="1.5" style="-webkit-tap-highlight-color: rgba(0, 0, 0, 0);"><use xlink:href="#raphael-marker-block" transform="rotate(180 1.5 1.5) scale(0.6,0.6)" stroke-width="1.6667" fill="black" stroke="none" style="-webkit-tap-highlight-color: rgba(0, 0, 0, 0);"></use></marker></defs><rect x="0" y="0" width="49.5625" height="35.5" rx="20" ry="20" fill="#ffffff" stroke="#000000" style="-webkit-tap-highlight-color: rgba(0, 0, 0, 0);" stroke-width="3" class="flowchart" id="st" transform="matrix(1,0,0,1,158.8281,43.3164)"></rect><text x="10" y="17.75" text-anchor="start" font-family="&quot;Arial&quot;" font-size="14px" stroke="none" fill="#000000" style="-webkit-tap-highlight-color: rgba(0, 0, 0, 0); text-anchor: start; font-family: Arial; font-size: 14px;" id="stt" class="flowchartt" transform="matrix(1,0,0,1,158.8281,43.3164)" stroke-width="1"><tspan dy="4.75" style="-webkit-tap-highlight-color: rgba(0, 0, 0, 0);">Start</tspan></text><path fill="#ffffff" stroke="#000000" d="M10,17.75L0,35.5L264.421875,35.5L284.421875,0L20,0L10,17.75" stroke-width="3" id="io4" class="flowchart" style="-webkit-tap-highlight-color: rgba(0, 0, 0, 0);" transform="matrix(1,0,0,1,41.3984,172.1328)"></path><text x="30" y="17.75" text-anchor="start" font-family="&quot;Arial&quot;" font-size="14px" stroke="none" fill="#000000" style="-webkit-tap-highlight-color: rgba(0, 0, 0, 0); text-anchor: start; font-family: Arial; font-size: 14px;" id="io4t" class="flowchartt" transform="matrix(1,0,0,1,41.3984,172.1328)" stroke-width="1"><tspan dy="4.75" style="-webkit-tap-highlight-color: rgba(0, 0, 0, 0);">code = input('Enter the coded text: ')</tspan></text><path fill="#ffffff" stroke="#000000" d="M10,17.75L0,35.5L335.21875,35.5L355.21875,0L20,0L10,17.75" stroke-width="3" id="io6" class="flowchart" style="-webkit-tap-highlight-color: rgba(0, 0, 0, 0);" transform="matrix(1,0,0,1,6,300.9492)"></path><text x="30" y="17.75" text-anchor="start" font-family="&quot;Arial&quot;" font-size="14px" stroke="none" fill="#000000" style="-webkit-tap-highlight-color: rgba(0, 0, 0, 0); text-anchor: start; font-family: Arial; font-size: 14px;" id="io6t" class="flowchartt" transform="matrix(1,0,0,1,6,300.9492)" stroke-width="1"><tspan dy="4.75" style="-webkit-tap-highlight-color: rgba(0, 0, 0, 0);">distance = int(input('Enter the distance value: '))</tspan></text><rect x="0" y="0" width="96.546875" height="35.5" rx="0" ry="0" fill="#ffffff" stroke="#000000" style="-webkit-tap-highlight-color: rgba(0, 0, 0, 0);" stroke-width="3" class="flowchart" id="op8" transform="matrix(1,0,0,1,135.3359,429.7656)"></rect><text x="10" y="17.75" text-anchor="start" font-family="&quot;Arial&quot;" font-size="14px" stroke="none" fill="#000000" style="-webkit-tap-highlight-color: rgba(0, 0, 0, 0); text-anchor: start; font-family: Arial; font-size: 14px;" id="op8t" class="flowchartt" transform="matrix(1,0,0,1,135.3359,429.7656)" stroke-width="1"><tspan dy="4.75" style="-webkit-tap-highlight-color: rgba(0, 0, 0, 0);">plainText = ''</tspan></text><path fill="#ffffff" stroke="#000000" d="M42.767578125,21.3837890625L0,42.767578125L85.53515625,85.53515625L171.0703125,42.767578125L85.53515625,0L0,42.767578125" stroke-width="3" id="cond11" class="flowchart" style="-webkit-tap-highlight-color: rgba(0, 0, 0, 0);" transform="matrix(1,0,0,1,98.0742,533.5645)"></path><text x="47.767578125" y="42.767578125" text-anchor="start" font-family="&quot;Arial&quot;" font-size="14px" stroke="none" fill="#000000" style="-webkit-tap-highlight-color: rgba(0, 0, 0, 0); text-anchor: start; font-family: Arial; font-size: 14px;" id="cond11t" class="flowchartt" transform="matrix(1,0,0,1,98.0742,533.5645)" stroke-width="1"><tspan dy="4.751953125" style="-webkit-tap-highlight-color: rgba(0, 0, 0, 0);">for ch in code</tspan></text><rect x="0" y="0" width="135.296875" height="35.5" rx="0" ry="0" fill="#ffffff" stroke="#000000" style="-webkit-tap-highlight-color: rgba(0, 0, 0, 0);" stroke-width="3" class="flowchart" id="op33" transform="matrix(1,0,0,1,115.9609,712.416)"></rect><text x="10" y="17.75" text-anchor="start" font-family="&quot;Arial&quot;" font-size="14px" stroke="none" fill="#000000" style="-webkit-tap-highlight-color: rgba(0, 0, 0, 0); text-anchor: start; font-family: Arial; font-size: 14px;" id="op33t" class="flowchartt" transform="matrix(1,0,0,1,115.9609,712.416)" stroke-width="1"><tspan dy="4.75" style="-webkit-tap-highlight-color: rgba(0, 0, 0, 0);">ordValue = ord(ch)</tspan></text><rect x="0" y="0" width="237.765625" height="35.5" rx="0" ry="0" fill="#ffffff" stroke="#000000" style="-webkit-tap-highlight-color: rgba(0, 0, 0, 0);" stroke-width="3" class="flowchart" id="op35" transform="matrix(1,0,0,1,64.7266,841.2324)"></rect><text x="10" y="17.75" text-anchor="start" font-family="&quot;Arial&quot;" font-size="14px" stroke="none" fill="#000000" style="-webkit-tap-highlight-color: rgba(0, 0, 0, 0); text-anchor: start; font-family: Arial; font-size: 14px;" id="op35t" class="flowchartt" transform="matrix(1,0,0,1,64.7266,841.2324)" stroke-width="1"><tspan dy="4.75" style="-webkit-tap-highlight-color: rgba(0, 0, 0, 0);">cipherValue = (ordValue - distance)</tspan></text><path fill="#ffffff" stroke="#000000" d="M55.06640625,27.533203125L0,55.06640625L110.1328125,110.1328125L220.265625,55.06640625L110.1328125,0L0,55.06640625" stroke-width="3" id="cond38" class="flowchart" style="-webkit-tap-highlight-color: rgba(0, 0, 0, 0);" transform="matrix(1,0,0,1,73.4766,932.7324)"></path><text x="60.06640625" y="55.06640625" text-anchor="start" font-family="&quot;Arial&quot;" font-size="14px" stroke="none" fill="#000000" style="-webkit-tap-highlight-color: rgba(0, 0, 0, 0); text-anchor: start; font-family: Arial; font-size: 14px;" id="cond38t" class="flowchartt" transform="matrix(1,0,0,1,73.4766,932.7324)" stroke-width="1"><tspan dy="4.75390625" style="-webkit-tap-highlight-color: rgba(0, 0, 0, 0);">if  (cipherValue &lt; 0)</tspan></text><rect x="0" y="0" width="312.4375" height="35.5" rx="0" ry="0" fill="#ffffff" stroke="#000000" style="-webkit-tap-highlight-color: rgba(0, 0, 0, 0);" stroke-width="3" class="flowchart" id="op40" transform="matrix(1,0,0,1,27.3906,1136.1816)"></rect><text x="10" y="17.75" text-anchor="start" font-family="&quot;Arial&quot;" font-size="14px" stroke="none" fill="#000000" style="-webkit-tap-highlight-color: rgba(0, 0, 0, 0); text-anchor: start; font-family: Arial; font-size: 14px;" id="op40t" class="flowchartt" transform="matrix(1,0,0,1,27.3906,1136.1816)" stroke-width="1"><tspan dy="4.75" style="-webkit-tap-highlight-color: rgba(0, 0, 0, 0);"> cipherValue = (127 - (distance - (1 - ordValue)))</tspan></text><rect x="0" y="0" width="201.046875" height="35.5" rx="0" ry="0" fill="#ffffff" stroke="#000000" style="-webkit-tap-highlight-color: rgba(0, 0, 0, 0);" stroke-width="3" class="flowchart" id="op48" transform="matrix(1,0,0,1,83.0859,1264.998)"></rect><text x="10" y="17.75" text-anchor="start" font-family="&quot;Arial&quot;" font-size="14px" stroke="none" fill="#000000" style="-webkit-tap-highlight-color: rgba(0, 0, 0, 0); text-anchor: start; font-family: Arial; font-size: 14px;" id="op48t" class="flowchartt" transform="matrix(1,0,0,1,83.0859,1264.998)" stroke-width="1"><tspan dy="4.75" style="-webkit-tap-highlight-color: rgba(0, 0, 0, 0);">plainText += chr(cipherValue)</tspan></text><path fill="#ffffff" stroke="#000000" d="M10,17.75L0,35.5L131.8125,35.5L151.8125,0L20,0L10,17.75" stroke-width="3" id="io52" class="flowchart" style="-webkit-tap-highlight-color: rgba(0, 0, 0, 0);" transform="matrix(1,0,0,1,426.8477,558.582)"></path><text x="30" y="17.75" text-anchor="start" font-family="&quot;Arial&quot;" font-size="14px" stroke="none" fill="#000000" style="-webkit-tap-highlight-color: rgba(0, 0, 0, 0); text-anchor: start; font-family: Arial; font-size: 14px;" id="io52t" class="flowchartt" transform="matrix(1,0,0,1,426.8477,558.582)" stroke-width="1"><tspan dy="4.75" style="-webkit-tap-highlight-color: rgba(0, 0, 0, 0);">print(plainText)</tspan><tspan dy="16.8" x="30" style="-webkit-tap-highlight-color: rgba(0, 0, 0, 0);"></tspan></text><rect x="0" y="0" width="44.90625" height="35.5" rx="20" ry="20" fill="#ffffff" stroke="#000000" style="-webkit-tap-highlight-color: rgba(0, 0, 0, 0);" stroke-width="3" class="flowchart" id="e" transform="matrix(1,0,0,1,480.3008,687.3984)"></rect><text x="10" y="17.75" text-anchor="start" font-family="&quot;Arial&quot;" font-size="14px" stroke="none" fill="#000000" style="-webkit-tap-highlight-color: rgba(0, 0, 0, 0); text-anchor: start; font-family: Arial; font-size: 14px;" id="et" class="flowchartt" transform="matrix(1,0,0,1,480.3008,687.3984)" stroke-width="1"><tspan dy="4.75" style="-webkit-tap-highlight-color: rgba(0, 0, 0, 0);">End</tspan></text><path fill="none" stroke="#000000" d="M183.609375,78.81640625C183.609375,78.81640625,183.609375,148.9916651248932,183.609375,167.6319682635367" stroke-width="3" marker-end="url(#raphael-marker-endblock33-obj24)" style="-webkit-tap-highlight-color: rgba(0, 0, 0, 0);"></path><path fill="none" stroke="#000000" d="M183.609375,207.6328125C183.609375,207.6328125,183.609375,277.8080713748932,183.609375,296.4483745135367" stroke-width="3" marker-end="url(#raphael-marker-endblock33-obj25)" style="-webkit-tap-highlight-color: rgba(0, 0, 0, 0);"></path><path fill="none" stroke="#000000" d="M183.609375,336.44921875C183.609375,336.44921875,183.609375,406.6244776248932,183.609375,425.2647807635367" stroke-width="3" marker-end="url(#raphael-marker-endblock33-obj26)" style="-webkit-tap-highlight-color: rgba(0, 0, 0, 0);"></path><path fill="none" stroke="#000000" d="M183.609375,465.265625C183.609375,465.265625,183.609375,513.8322609779425,183.609375,529.0567630764967" stroke-width="3" marker-end="url(#raphael-marker-endblock33-obj27)" style="-webkit-tap-highlight-color: rgba(0, 0, 0, 0);"></path><path fill="none" stroke="#000000" d="M183.609375,619.099609375C183.609375,619.099609375,183.609375,689.2748682498932,183.609375,707.9151713885367" stroke-width="3" marker-end="url(#raphael-marker-endblock33-obj28)" style="-webkit-tap-highlight-color: rgba(0, 0, 0, 0);"></path><text x="188.609375" y="629.099609375" text-anchor="start" font-family="&quot;Arial&quot;" font-size="14px" stroke="none" fill="#000000" style="-webkit-tap-highlight-color: rgba(0, 0, 0, 0); text-anchor: start; font-family: Arial; font-size: 14px;" stroke-width="1"><tspan dy="4.755859375" style="-webkit-tap-highlight-color: rgba(0, 0, 0, 0);">yes</tspan></text><path fill="none" stroke="#000000" d="M269.14453125,576.33203125C269.14453125,576.33203125,405.61860169190913,576.33203125,432.3403313048025,576.33203125" stroke-width="3" marker-end="url(#raphael-marker-endblock33-obj30)" style="-webkit-tap-highlight-color: rgba(0, 0, 0, 0);"></path><text x="274.14453125" y="566.33203125" text-anchor="start" font-family="&quot;Arial&quot;" font-size="14px" stroke="none" fill="#000000" style="-webkit-tap-highlight-color: rgba(0, 0, 0, 0); text-anchor: start; font-family: Arial; font-size: 14px;" stroke-width="1"><tspan dy="4.75390625" style="-webkit-tap-highlight-color: rgba(0, 0, 0, 0);">no</tspan></text><path fill="none" stroke="#000000" d="M183.609375,747.916015625C183.609375,747.916015625,183.609375,818.0912744998932,183.609375,836.7315776385367" stroke-width="3" marker-end="url(#raphael-marker-endblock33-obj32)" style="-webkit-tap-highlight-color: rgba(0, 0, 0, 0);"></path><path fill="none" stroke="#000000" d="M183.609375,876.732421875C183.609375,876.732421875,183.609375,914.93319272995,183.609375,928.2325821926352" stroke-width="3" marker-end="url(#raphael-marker-endblock33-obj33)" style="-webkit-tap-highlight-color: rgba(0, 0, 0, 0);"></path><path fill="none" stroke="#000000" d="M183.609375,1042.865234375C183.609375,1042.865234375,183.609375,1113.0404932498932,183.609375,1131.6807963885367" stroke-width="3" marker-end="url(#raphael-marker-endblock33-obj34)" style="-webkit-tap-highlight-color: rgba(0, 0, 0, 0);"></path><text x="188.609375" y="1052.865234375" text-anchor="start" font-family="&quot;Arial&quot;" font-size="14px" stroke="none" fill="#000000" style="-webkit-tap-highlight-color: rgba(0, 0, 0, 0); text-anchor: start; font-family: Arial; font-size: 14px;" stroke-width="1"><tspan dy="4.755859375" style="-webkit-tap-highlight-color: rgba(0, 0, 0, 0);">yes</tspan></text><path fill="none" stroke="#000000" d="M293.7421875,987.798828125C293.7421875,987.798828125,318.7421875,987.798828125,318.7421875,987.798828125C318.7421875,987.798828125,318.7421875,1239.998046875,318.7421875,1239.998046875C318.7421875,1239.998046875,183.609375,1239.998046875,183.609375,1239.998046875C183.609375,1239.998046875,183.609375,1253.3020181655884,183.609375,1260.499674508348" stroke-width="3" marker-end="url(#raphael-marker-endblock33-obj36)" style="-webkit-tap-highlight-color: rgba(0, 0, 0, 0);"></path><text x="298.7421875" y="977.798828125" text-anchor="start" font-family="&quot;Arial&quot;" font-size="14px" stroke="none" fill="#000000" style="-webkit-tap-highlight-color: rgba(0, 0, 0, 0); text-anchor: start; font-family: Arial; font-size: 14px;" stroke-width="1"><tspan dy="4.751953125" style="-webkit-tap-highlight-color: rgba(0, 0, 0, 0);">no</tspan></text><path fill="none" stroke="#000000" d="M183.609375,1171.681640625C183.609375,1171.681640625,183.609375,1241.8568994998932,183.609375,1260.4972026385367" stroke-width="3" marker-end="url(#raphael-marker-endblock33-obj38)" style="-webkit-tap-highlight-color: rgba(0, 0, 0, 0);"></path><path fill="none" stroke="#000000" d="M83.0859375,1282.748046875C83.0859375,1282.748046875,58.0859375,1282.748046875,58.0859375,1282.748046875C58.0859375,1282.748046875,58.0859375,508.564453125,58.0859375,508.564453125C58.0859375,508.564453125,183.609375,508.564453125,183.609375,508.564453125C183.609375,508.564453125,183.609375,521.8684244155884,183.609375,529.0660807583481" stroke-width="3" marker-end="url(#raphael-marker-endblock33-obj39)" style="-webkit-tap-highlight-color: rgba(0, 0, 0, 0);"></path><path fill="none" stroke="#000000" d="M502.75390625,594.08203125C502.75390625,594.08203125,502.75390625,664.2572901248932,502.75390625,682.8975932635367" stroke-width="3" marker-end="url(#raphael-marker-endblock33-obj40)" style="-webkit-tap-highlight-color: rgba(0, 0, 0, 0);"></path></svg>