<svg height="1150.6015625" version="1.1" width="854.50390625" xmlns="http://www.w3.org/2000/svg" xmlns:xlink="http://www.w3.org/1999/xlink" style="overflow: hidden; position: relative;" viewBox="0 0 854.50390625 1150.6015625" preserveAspectRatio="xMidYMid meet"><desc style="-webkit-tap-highlight-color: rgba(0, 0, 0, 0);">Created with Raphaël 2.1.4</desc><defs style="-webkit-tap-highlight-color: rgba(0, 0, 0, 0);"><path stroke-linecap="round" d="M5,0 0,2.5 5,5z" id="raphael-marker-block" style="-webkit-tap-highlight-color: rgba(0, 0, 0, 0);"></path><marker id="raphael-marker-endblock33-obj26" markerHeight="3" markerWidth="3" orient="auto" refX="1.5" refY="1.5" style="-webkit-tap-highlight-color: rgba(0, 0, 0, 0);"><use xlink:href="#raphael-marker-block" transform="rotate(180 1.5 1.5) scale(0.6,0.6)" stroke-width="1.6667" fill="black" stroke="none" style="-webkit-tap-highlight-color: rgba(0, 0, 0, 0);"></use></marker><marker id="raphael-marker-endblock33-obj27" markerHeight="3" markerWidth="3" orient="auto" refX="1.5" refY="1.5" style="-webkit-tap-highlight-color: rgba(0, 0, 0, 0);"><use xlink:href="#raphael-marker-block" transform="rotate(180 1.5 1.5) scale(0.6,0.6)" stroke-width="1.6667" fill="black" stroke="none" style="-webkit-tap-highlight-color: rgba(0, 0, 0, 0);"></use></marker><marker id="raphael-marker-endblock33-obj28" markerHeight="3" markerWidth="3" orient="auto" refX="1.5" refY="1.5" style="-webkit-tap-highlight-color: rgba(0, 0, 0, 0);"><use xlink:href="#raphael-marker-block" transform="rotate(180 1.5 1.5) scale(0.6,0.6)" stroke-width="1.6667" fill="black" stroke="none" style="-webkit-tap-highlight-color: rgba(0, 0, 0, 0);"></use></marker><marker id="raphael-marker-endblock33-obj30" markerHeight="3" markerWidth="3" orient="auto" refX="1.5" refY="1.5" style="-webkit-tap-highlight-color: rgba(0, 0, 0, 0);"><use xlink:href="#raphael-marker-block" transform="rotate(180 1.5 1.5) scale(0.6,0.6)" stroke-width="1.6667" fill="black" stroke="none" style="-webkit-tap-highlight-color: rgba(0, 0, 0, 0);"></use></marker><marker id="raphael-marker-endblock33-obj32" markerHeight="3" markerWidth="3" orient="auto" refX="1.5" refY="1.5" style="-webkit-tap-highlight-color: rgba(0, 0, 0, 0);"><use xlink:href="#raphael-marker-block" transform="rotate(180 1.5 1.5) scale(0.6,0.6)" stroke-width="1.6667" fill="black" stroke="none" style="-webkit-tap-highlight-color: rgba(0, 0, 0, 0);"></use></marker><marker id="raphael-marker-endblock33-obj33" markerHeight="3" markerWidth="3" orient="auto" refX="1.5" refY="1.5" style="-webkit-tap-highlight-color: rgba(0, 0, 0, 0);"><use xlink:href="#raphael-marker-block" transform="rotate(180 1.5 1.5) scale(0.6,0.6)" stroke-width="1.6667" fill="black" stroke="none" style="-webkit-tap-highlight-color: rgba(0, 0, 0, 0);"></use></marker><marker id="raphael-marker-endblock33-obj34" markerHeight="3" markerWidth="3" orient="auto" refX="1.5" refY="1.5" style="-webkit-tap-highlight-color: rgba(0, 0, 0, 0);"><use xlink:href="#raphael-marker-block" transform="rotate(180 1.5 1.5) scale(0.6,0.6)" stroke-width="1.6667" fill="black" stroke="none" style="-webkit-tap-highlight-color: rgba(0, 0, 0, 0);"></use></marker><marker id="raphael-marker-endblock33-obj36" markerHeight="3" markerWidth="3" orient="auto" refX="1.5" refY="1.5" style="-webkit-tap-highlight-color: rgba(0, 0, 0, 0);"><use xlink:href="#raphael-marker-block" transform="rotate(180 1.5 1.5) scale(0.6,0.6)" stroke-width="1.6667" fill="black" stroke="none" style="-webkit-tap-highlight-color: rgba(0, 0, 0, 0);"></use></marker><marker id="raphael-marker-endblock33-obj38" markerHeight="3" markerWidth="3" orient="auto" refX="1.5" refY="1.5" style="-webkit-tap-highlight-color: rgba(0, 0, 0, 0);"><use xlink:href="#raphael-marker-block" transform="rotate(180 1.5 1.5) scale(0.6,0.6)" stroke-width="1.6667" fill="black" stroke="none" style="-webkit-tap-highlight-color: rgba(0, 0, 0, 0);"></use></marker><marker id="raphael-marker-endblock33-obj39" markerHeight="3" markerWidth="3" orient="auto" refX="1.5" refY="1.5" style="-webkit-tap-highlight-color: rgba(0, 0, 0, 0);"><use xlink:href="#raphael-marker-block" transform="rotate(180 1.5 1.5) scale(0.6,0.6)" stroke-width="1.6667" fill="black" stroke="none" style="-webkit-tap-highlight-color: rgba(0, 0, 0, 0);"></use></marker><marker id="raphael-marker-endblock33-obj40" markerHeight="3" markerWidth="3" orient="auto" refX="1.5" refY="1.5" style="-webkit-tap-highlight-color: rgba(0, 0, 0, 0);"><use xlink:href="#raphael-marker-block" transform="rotate(180 1.5 1.5) scale(0.6,0.6)" stroke-width="1.6667" fill="black" stroke="none" style="-webkit-tap-highlight-color: rgba(0, 0, 0, 0);"></use></marker><marker id="raphael-marker-endblock33-obj41" markerHeight="3" markerWidth="3" orient="auto" refX="1.5" refY="1.5" style="-webkit-tap-highlight-color: rgba(0, 0, 0, 0);"><use xlink:href="#raphael-marker-block" transform="rotate(180 1.5 1.5) scale(0.6,0.6)" stroke-width="1.6667" fill="black" stroke="none" style="-webkit-tap-highlight-color: rgba(0, 0, 0, 0);"></use></marker><marker id="raphael-marker-endblock33-obj42" markerHeight="3" markerWidth="3" orient="auto" refX="1.5" refY="1.5" style="-webkit-tap-highlight-color: rgba(0, 0, 0, 0);"><use xlink:href="#raphael-marker-block" transform="rotate(180 1.5 1.5) scale(0.6,0.6)" stroke-width="1.6667" fill="black" stroke="none" style="-webkit-tap-highlight-color: rgba(0, 0, 0, 0);"></use></marker></defs><rect x="0" y="0" width="49.5625" height="35.5" rx="20" ry="20" fill="#ffffff" stroke="#000000" style="-webkit-tap-highlight-color: rgba(0, 0, 0, 0);" stroke-width="3" class="flowchart" id="st" transform="matrix(1,0,0,1,116.6563,43.4102)"></rect><text x="10" y="17.75" text-anchor="start" font-family="&quot;Arial&quot;" font-size="14px" stroke="none" fill="#000000" style="-webkit-tap-highlight-color: rgba(0, 0, 0, 0); text-anchor: start; font-family: Arial; font-size: 14px;" id="stt" class="flowchartt" transform="matrix(1,0,0,1,116.6563,43.4102)" stroke-width="1"><tspan dy="4.75" style="-webkit-tap-highlight-color: rgba(0, 0, 0, 0);">Start</tspan></text><rect x="0" y="0" width="167.84375" height="35.5" rx="0" ry="0" fill="#ffffff" stroke="#000000" style="-webkit-tap-highlight-color: rgba(0, 0, 0, 0);" stroke-width="3" class="flowchart" id="op4" transform="matrix(1,0,0,1,57.5156,172.3203)"></rect><text x="10" y="17.75" text-anchor="start" font-family="&quot;Arial&quot;" font-size="14px" stroke="none" fill="#000000" style="-webkit-tap-highlight-color: rgba(0, 0, 0, 0); text-anchor: start; font-family: Arial; font-size: 14px;" id="op4t" class="flowchartt" transform="matrix(1,0,0,1,57.5156,172.3203)" stroke-width="1"><tspan dy="4.75" style="-webkit-tap-highlight-color: rgba(0, 0, 0, 0);">Enter a decimal integer:</tspan></text><path fill="#ffffff" stroke="#000000" d="M48.884765625,24.4423828125L0,48.884765625L97.76953125,97.76953125L195.5390625,48.884765625L97.76953125,0L0,48.884765625" stroke-width="3" id="cond7" class="flowchart" style="-webkit-tap-highlight-color: rgba(0, 0, 0, 0);" transform="matrix(1,0,0,1,43.668,270.0957)"></path><text x="53.884765625" y="48.884765625" text-anchor="start" font-family="&quot;Arial&quot;" font-size="14px" stroke="none" fill="#000000" style="-webkit-tap-highlight-color: rgba(0, 0, 0, 0); text-anchor: start; font-family: Arial; font-size: 14px;" id="cond7t" class="flowchartt" transform="matrix(1,0,0,1,43.668,270.0957)" stroke-width="1"><tspan dy="4.759765625" style="-webkit-tap-highlight-color: rgba(0, 0, 0, 0);">if (decimal == 0)</tspan></text><path fill="#ffffff" stroke="#000000" d="M10,17.75L0,35.5L84.34375,35.5L104.34375,0L20,0L10,17.75" stroke-width="3" id="io11" class="flowchart" style="-webkit-tap-highlight-color: rgba(0, 0, 0, 0);" transform="matrix(1,0,0,1,89.2656,461.2754)"></path><text x="30" y="17.75" text-anchor="start" font-family="&quot;Arial&quot;" font-size="14px" stroke="none" fill="#000000" style="-webkit-tap-highlight-color: rgba(0, 0, 0, 0); text-anchor: start; font-family: Arial; font-size: 14px;" id="io11t" class="flowchartt" transform="matrix(1,0,0,1,89.2656,461.2754)" stroke-width="1"><tspan dy="4.75" style="-webkit-tap-highlight-color: rgba(0, 0, 0, 0);">print(0)</tspan></text><path fill="#ffffff" stroke="#000000" d="M10,17.75L0,35.5L201.84375,35.5L221.84375,0L20,0L10,17.75" stroke-width="3" id="io15" class="flowchart" style="-webkit-tap-highlight-color: rgba(0, 0, 0, 0);" transform="matrix(1,0,0,1,319.7227,301.2305)"></path><text x="30" y="17.75" text-anchor="start" font-family="&quot;Arial&quot;" font-size="14px" stroke="none" fill="#000000" style="-webkit-tap-highlight-color: rgba(0, 0, 0, 0); text-anchor: start; font-family: Arial; font-size: 14px;" id="io15t" class="flowchartt" transform="matrix(1,0,0,1,319.7227,301.2305)" stroke-width="1"><tspan dy="4.75" style="-webkit-tap-highlight-color: rgba(0, 0, 0, 0);">Quotient Remainder Octal</tspan></text><rect x="0" y="0" width="83.3125" height="35.5" rx="0" ry="0" fill="#ffffff" stroke="#000000" style="-webkit-tap-highlight-color: rgba(0, 0, 0, 0);" stroke-width="3" class="flowchart" id="op17" transform="matrix(1,0,0,1,388.9883,430.1406)"></rect><text x="10" y="17.75" text-anchor="start" font-family="&quot;Arial&quot;" font-size="14px" stroke="none" fill="#000000" style="-webkit-tap-highlight-color: rgba(0, 0, 0, 0); text-anchor: start; font-family: Arial; font-size: 14px;" id="op17t" class="flowchartt" transform="matrix(1,0,0,1,388.9883,430.1406)" stroke-width="1"><tspan dy="4.75" style="-webkit-tap-highlight-color: rgba(0, 0, 0, 0);">ostring = ''</tspan></text><path fill="#ffffff" stroke="#000000" d="M55.16015625,27.580078125L0,55.16015625L110.3203125,110.3203125L220.640625,55.16015625L110.3203125,0L0,55.16015625" stroke-width="3" id="cond20" class="flowchart" style="-webkit-tap-highlight-color: rgba(0, 0, 0, 0);" transform="matrix(1,0,0,1,320.3242,521.6406)"></path><text x="60.16015625" y="55.16015625" text-anchor="start" font-family="&quot;Arial&quot;" font-size="14px" stroke="none" fill="#000000" style="-webkit-tap-highlight-color: rgba(0, 0, 0, 0); text-anchor: start; font-family: Arial; font-size: 14px;" id="cond20t" class="flowchartt" transform="matrix(1,0,0,1,320.3242,521.6406)" stroke-width="1"><tspan dy="4.75390625" style="-webkit-tap-highlight-color: rgba(0, 0, 0, 0);">while (decimal &gt; 0)</tspan></text><rect x="0" y="0" width="184.546875" height="35.5" rx="0" ry="0" fill="#ffffff" stroke="#000000" style="-webkit-tap-highlight-color: rgba(0, 0, 0, 0);" stroke-width="3" class="flowchart" id="op33" transform="matrix(1,0,0,1,338.3711,725.3711)"></rect><text x="10" y="17.75" text-anchor="start" font-family="&quot;Arial&quot;" font-size="14px" stroke="none" fill="#000000" style="-webkit-tap-highlight-color: rgba(0, 0, 0, 0); text-anchor: start; font-family: Arial; font-size: 14px;" id="op33t" class="flowchartt" transform="matrix(1,0,0,1,338.3711,725.3711)" stroke-width="1"><tspan dy="4.75" style="-webkit-tap-highlight-color: rgba(0, 0, 0, 0);">remainder = (decimal % 8)</tspan></text><rect x="0" y="0" width="165.09375" height="35.5" rx="0" ry="0" fill="#ffffff" stroke="#000000" style="-webkit-tap-highlight-color: rgba(0, 0, 0, 0);" stroke-width="3" class="flowchart" id="op35" transform="matrix(1,0,0,1,348.0977,854.2813)"></rect><text x="10" y="17.75" text-anchor="start" font-family="&quot;Arial&quot;" font-size="14px" stroke="none" fill="#000000" style="-webkit-tap-highlight-color: rgba(0, 0, 0, 0); text-anchor: start; font-family: Arial; font-size: 14px;" id="op35t" class="flowchartt" transform="matrix(1,0,0,1,348.0977,854.2813)" stroke-width="1"><tspan dy="4.75" style="-webkit-tap-highlight-color: rgba(0, 0, 0, 0);">decimal = (decimal // 8)</tspan></text><rect x="0" y="0" width="233.171875" height="35.5" rx="0" ry="0" fill="#ffffff" stroke="#000000" style="-webkit-tap-highlight-color: rgba(0, 0, 0, 0);" stroke-width="3" class="flowchart" id="op37" transform="matrix(1,0,0,1,314.0586,983.1914)"></rect><text x="10" y="17.75" text-anchor="start" font-family="&quot;Arial&quot;" font-size="14px" stroke="none" fill="#000000" style="-webkit-tap-highlight-color: rgba(0, 0, 0, 0); text-anchor: start; font-family: Arial; font-size: 14px;" id="op37t" class="flowchartt" transform="matrix(1,0,0,1,314.0586,983.1914)" stroke-width="1"><tspan dy="4.75" style="-webkit-tap-highlight-color: rgba(0, 0, 0, 0);">ostring = (str(remainder) + ostring)</tspan></text><path fill="#ffffff" stroke="#000000" d="M10,17.75L0,35.5L250.875,35.5L270.875,0L20,0L10,17.75" stroke-width="3" id="io39" class="flowchart" style="-webkit-tap-highlight-color: rgba(0, 0, 0, 0);" transform="matrix(1,0,0,1,295.207,1112.1016)"></path><text x="30" y="17.75" text-anchor="start" font-family="&quot;Arial&quot;" font-size="14px" stroke="none" fill="#000000" style="-webkit-tap-highlight-color: rgba(0, 0, 0, 0); text-anchor: start; font-family: Arial; font-size: 14px;" id="io39t" class="flowchartt" transform="matrix(1,0,0,1,295.207,1112.1016)" stroke-width="1"><tspan dy="4.75" style="-webkit-tap-highlight-color: rgba(0, 0, 0, 0);">output decimal, remainder, ostring</tspan></text><path fill="#ffffff" stroke="#000000" d="M10,17.75L0,35.5L218.203125,35.5L238.203125,0L20,0L10,17.75" stroke-width="3" id="io43" class="flowchart" style="-webkit-tap-highlight-color: rgba(0, 0, 0, 0);" transform="matrix(1,0,0,1,613.3008,559.0508)"></path><text x="30" y="17.75" text-anchor="start" font-family="&quot;Arial&quot;" font-size="14px" stroke="none" fill="#000000" style="-webkit-tap-highlight-color: rgba(0, 0, 0, 0); text-anchor: start; font-family: Arial; font-size: 14px;" id="io43t" class="flowchartt" transform="matrix(1,0,0,1,613.3008,559.0508)" stroke-width="1"><tspan dy="4.75" style="-webkit-tap-highlight-color: rgba(0, 0, 0, 0);">The octal representation is X</tspan><tspan dy="16.8" x="30" style="-webkit-tap-highlight-color: rgba(0, 0, 0, 0);"></tspan></text><rect x="0" y="0" width="44.90625" height="35.5" rx="20" ry="20" fill="#ffffff" stroke="#000000" style="-webkit-tap-highlight-color: rgba(0, 0, 0, 0);" stroke-width="3" class="flowchart" id="e" transform="matrix(1,0,0,1,709.9492,687.9609)"></rect><text x="10" y="17.75" text-anchor="start" font-family="&quot;Arial&quot;" font-size="14px" stroke="none" fill="#000000" style="-webkit-tap-highlight-color: rgba(0, 0, 0, 0); text-anchor: start; font-family: Arial; font-size: 14px;" id="et" class="flowchartt" transform="matrix(1,0,0,1,709.9492,687.9609)" stroke-width="1"><tspan dy="4.75" style="-webkit-tap-highlight-color: rgba(0, 0, 0, 0);">End</tspan></text><path fill="none" stroke="#000000" d="M141.4375,78.91015625C141.4375,78.91015625,141.4375,149.15591645240784,141.4375,167.81494650617242" stroke-width="3" marker-end="url(#raphael-marker-endblock33-obj26)" style="-webkit-tap-highlight-color: rgba(0, 0, 0, 0);"></path><path fill="none" stroke="#000000" d="M141.4375,207.8203125C141.4375,207.8203125,141.4375,251.28700300166383,141.4375,265.5919587624653" stroke-width="3" marker-end="url(#raphael-marker-endblock33-obj27)" style="-webkit-tap-highlight-color: rgba(0, 0, 0, 0);"></path><path fill="none" stroke="#000000" d="M141.4375,367.865234375C141.4375,367.865234375,141.4375,438.11099457740784,141.4375,456.7700246311724" stroke-width="3" marker-end="url(#raphael-marker-endblock33-obj28)" style="-webkit-tap-highlight-color: rgba(0, 0, 0, 0);"></path><text x="146.4375" y="377.865234375" text-anchor="start" font-family="&quot;Arial&quot;" font-size="14px" stroke="none" fill="#000000" style="-webkit-tap-highlight-color: rgba(0, 0, 0, 0); text-anchor: start; font-family: Arial; font-size: 14px;" stroke-width="1"><tspan dy="4.755859375" style="-webkit-tap-highlight-color: rgba(0, 0, 0, 0);">yes</tspan></text><path fill="none" stroke="#000000" d="M239.20703125,318.98046875C239.20703125,318.98046875,306.93155555520207,318.98046875,325.21849986222196,318.98046875" stroke-width="3" marker-end="url(#raphael-marker-endblock33-obj30)" style="-webkit-tap-highlight-color: rgba(0, 0, 0, 0);"></path><text x="244.20703125" y="308.98046875" text-anchor="start" font-family="&quot;Arial&quot;" font-size="14px" stroke="none" fill="#000000" style="-webkit-tap-highlight-color: rgba(0, 0, 0, 0); text-anchor: start; font-family: Arial; font-size: 14px;" stroke-width="1"><tspan dy="4.76171875" style="-webkit-tap-highlight-color: rgba(0, 0, 0, 0);">no</tspan></text><path fill="none" stroke="#000000" d="M430.64453125,336.73046875C430.64453125,336.73046875,430.64453125,406.97622895240784,430.64453125,425.6352590061724" stroke-width="3" marker-end="url(#raphael-marker-endblock33-obj32)" style="-webkit-tap-highlight-color: rgba(0, 0, 0, 0);"></path><path fill="none" stroke="#000000" d="M430.64453125,465.640625C430.64453125,465.640625,430.64453125,503.84139585494995,430.64453125,517.1407853176352" stroke-width="3" marker-end="url(#raphael-marker-endblock33-obj33)" style="-webkit-tap-highlight-color: rgba(0, 0, 0, 0);"></path><path fill="none" stroke="#000000" d="M430.64453125,631.9609375C430.64453125,631.9609375,430.64453125,702.2066977024078,430.64453125,720.8657277561724" stroke-width="3" marker-end="url(#raphael-marker-endblock33-obj34)" style="-webkit-tap-highlight-color: rgba(0, 0, 0, 0);"></path><text x="435.64453125" y="641.9609375" text-anchor="start" font-family="&quot;Arial&quot;" font-size="14px" stroke="none" fill="#000000" style="-webkit-tap-highlight-color: rgba(0, 0, 0, 0); text-anchor: start; font-family: Arial; font-size: 14px;" stroke-width="1"><tspan dy="4.7578125" style="-webkit-tap-highlight-color: rgba(0, 0, 0, 0);">yes</tspan></text><path fill="none" stroke="#000000" d="M540.96484375,576.80078125C540.96484375,576.80078125,601.5993991731666,576.80078125,618.8009014685083,576.80078125" stroke-width="3" marker-end="url(#raphael-marker-endblock33-obj36)" style="-webkit-tap-highlight-color: rgba(0, 0, 0, 0);"></path><text x="545.96484375" y="566.80078125" text-anchor="start" font-family="&quot;Arial&quot;" font-size="14px" stroke="none" fill="#000000" style="-webkit-tap-highlight-color: rgba(0, 0, 0, 0); text-anchor: start; font-family: Arial; font-size: 14px;" stroke-width="1"><tspan dy="4.75390625" style="-webkit-tap-highlight-color: rgba(0, 0, 0, 0);">no</tspan></text><path fill="none" stroke="#000000" d="M430.64453125,760.87109375C430.64453125,760.87109375,430.64453125,831.1168539524078,430.64453125,849.7758840061724" stroke-width="3" marker-end="url(#raphael-marker-endblock33-obj38)" style="-webkit-tap-highlight-color: rgba(0, 0, 0, 0);"></path><path fill="none" stroke="#000000" d="M430.64453125,889.78125C430.64453125,889.78125,430.64453125,960.0270102024078,430.64453125,978.6860402561724" stroke-width="3" marker-end="url(#raphael-marker-endblock33-obj39)" style="-webkit-tap-highlight-color: rgba(0, 0, 0, 0);"></path><path fill="none" stroke="#000000" d="M430.64453125,1018.69140625C430.64453125,1018.69140625,430.64453125,1088.9371664524078,430.64453125,1107.5961965061724" stroke-width="3" marker-end="url(#raphael-marker-endblock33-obj40)" style="-webkit-tap-highlight-color: rgba(0, 0, 0, 0);"></path><path fill="none" stroke="#000000" d="M305.20703125,1129.8515625C305.20703125,1129.8515625,280.20703125,1129.8515625,280.20703125,1129.8515625C280.20703125,1129.8515625,280.20703125,496.640625,280.20703125,496.640625C280.20703125,496.640625,430.64453125,496.640625,430.64453125,496.640625C430.64453125,496.640625,430.64453125,509.9445962905884,430.64453125,517.1422526333481" stroke-width="3" marker-end="url(#raphael-marker-endblock33-obj41)" style="-webkit-tap-highlight-color: rgba(0, 0, 0, 0);"></path><path fill="none" stroke="#000000" d="M732.40234375,594.55078125C732.40234375,594.55078125,732.40234375,664.7965414524078,732.40234375,683.4555715061724" stroke-width="3" marker-end="url(#raphael-marker-endblock33-obj42)" style="-webkit-tap-highlight-color: rgba(0, 0, 0, 0);"></path></svg>