<svg height="1789.482421875" version="1.1" width="1113.86328125" xmlns="http://www.w3.org/2000/svg" xmlns:xlink="http://www.w3.org/1999/xlink" style="overflow: hidden; position: relative;" viewBox="0 0 1113.86328125 1789.482421875" preserveAspectRatio="xMidYMid meet"><desc style="-webkit-tap-highlight-color: rgba(0, 0, 0, 0);">Created with Raphaël 2.1.4</desc><defs style="-webkit-tap-highlight-color: rgba(0, 0, 0, 0);"><path stroke-linecap="round" d="M5,0 0,2.5 5,5z" id="raphael-marker-block" style="-webkit-tap-highlight-color: rgba(0, 0, 0, 0);"></path><marker id="raphael-marker-endblock33-obj38" markerHeight="3" markerWidth="3" orient="auto" refX="1.5" refY="1.5" style="-webkit-tap-highlight-color: rgba(0, 0, 0, 0);"><use xlink:href="#raphael-marker-block" transform="rotate(180 1.5 1.5) scale(0.6,0.6)" stroke-width="1.6667" fill="black" stroke="none" style="-webkit-tap-highlight-color: rgba(0, 0, 0, 0);"></use></marker><marker id="raphael-marker-endblock33-obj39" markerHeight="3" markerWidth="3" orient="auto" refX="1.5" refY="1.5" style="-webkit-tap-highlight-color: rgba(0, 0, 0, 0);"><use xlink:href="#raphael-marker-block" transform="rotate(180 1.5 1.5) scale(0.6,0.6)" stroke-width="1.6667" fill="black" stroke="none" style="-webkit-tap-highlight-color: rgba(0, 0, 0, 0);"></use></marker><marker id="raphael-marker-endblock33-obj40" markerHeight="3" markerWidth="3" orient="auto" refX="1.5" refY="1.5" style="-webkit-tap-highlight-color: rgba(0, 0, 0, 0);"><use xlink:href="#raphael-marker-block" transform="rotate(180 1.5 1.5) scale(0.6,0.6)" stroke-width="1.6667" fill="black" stroke="none" style="-webkit-tap-highlight-color: rgba(0, 0, 0, 0);"></use></marker><marker id="raphael-marker-endblock33-obj41" markerHeight="3" markerWidth="3" orient="auto" refX="1.5" refY="1.5" style="-webkit-tap-highlight-color: rgba(0, 0, 0, 0);"><use xlink:href="#raphael-marker-block" transform="rotate(180 1.5 1.5) scale(0.6,0.6)" stroke-width="1.6667" fill="black" stroke="none" style="-webkit-tap-highlight-color: rgba(0, 0, 0, 0);"></use></marker><marker id="raphael-marker-endblock33-obj42" markerHeight="3" markerWidth="3" orient="auto" refX="1.5" refY="1.5" style="-webkit-tap-highlight-color: rgba(0, 0, 0, 0);"><use xlink:href="#raphael-marker-block" transform="rotate(180 1.5 1.5) scale(0.6,0.6)" stroke-width="1.6667" fill="black" stroke="none" style="-webkit-tap-highlight-color: rgba(0, 0, 0, 0);"></use></marker><marker id="raphael-marker-endblock33-obj43" markerHeight="3" markerWidth="3" orient="auto" refX="1.5" refY="1.5" style="-webkit-tap-highlight-color: rgba(0, 0, 0, 0);"><use xlink:href="#raphael-marker-block" transform="rotate(180 1.5 1.5) scale(0.6,0.6)" stroke-width="1.6667" fill="black" stroke="none" style="-webkit-tap-highlight-color: rgba(0, 0, 0, 0);"></use></marker><marker id="raphael-marker-endblock33-obj45" markerHeight="3" markerWidth="3" orient="auto" refX="1.5" refY="1.5" style="-webkit-tap-highlight-color: rgba(0, 0, 0, 0);"><use xlink:href="#raphael-marker-block" transform="rotate(180 1.5 1.5) scale(0.6,0.6)" stroke-width="1.6667" fill="black" stroke="none" style="-webkit-tap-highlight-color: rgba(0, 0, 0, 0);"></use></marker><marker id="raphael-marker-endblock33-obj46" markerHeight="3" markerWidth="3" orient="auto" refX="1.5" refY="1.5" style="-webkit-tap-highlight-color: rgba(0, 0, 0, 0);"><use xlink:href="#raphael-marker-block" transform="rotate(180 1.5 1.5) scale(0.6,0.6)" stroke-width="1.6667" fill="black" stroke="none" style="-webkit-tap-highlight-color: rgba(0, 0, 0, 0);"></use></marker><marker id="raphael-marker-endblock33-obj47" markerHeight="3" markerWidth="3" orient="auto" refX="1.5" refY="1.5" style="-webkit-tap-highlight-color: rgba(0, 0, 0, 0);"><use xlink:href="#raphael-marker-block" transform="rotate(180 1.5 1.5) scale(0.6,0.6)" stroke-width="1.6667" fill="black" stroke="none" style="-webkit-tap-highlight-color: rgba(0, 0, 0, 0);"></use></marker><marker id="raphael-marker-endblock33-obj48" markerHeight="3" markerWidth="3" orient="auto" refX="1.5" refY="1.5" style="-webkit-tap-highlight-color: rgba(0, 0, 0, 0);"><use xlink:href="#raphael-marker-block" transform="rotate(180 1.5 1.5) scale(0.6,0.6)" stroke-width="1.6667" fill="black" stroke="none" style="-webkit-tap-highlight-color: rgba(0, 0, 0, 0);"></use></marker><marker id="raphael-marker-endblock33-obj49" markerHeight="3" markerWidth="3" orient="auto" refX="1.5" refY="1.5" style="-webkit-tap-highlight-color: rgba(0, 0, 0, 0);"><use xlink:href="#raphael-marker-block" transform="rotate(180 1.5 1.5) scale(0.6,0.6)" stroke-width="1.6667" fill="black" stroke="none" style="-webkit-tap-highlight-color: rgba(0, 0, 0, 0);"></use></marker><marker id="raphael-marker-endblock33-obj50" markerHeight="3" markerWidth="3" orient="auto" refX="1.5" refY="1.5" style="-webkit-tap-highlight-color: rgba(0, 0, 0, 0);"><use xlink:href="#raphael-marker-block" transform="rotate(180 1.5 1.5) scale(0.6,0.6)" stroke-width="1.6667" fill="black" stroke="none" style="-webkit-tap-highlight-color: rgba(0, 0, 0, 0);"></use></marker><marker id="raphael-marker-endblock33-obj52" markerHeight="3" markerWidth="3" orient="auto" refX="1.5" refY="1.5" style="-webkit-tap-highlight-color: rgba(0, 0, 0, 0);"><use xlink:href="#raphael-marker-block" transform="rotate(180 1.5 1.5) scale(0.6,0.6)" stroke-width="1.6667" fill="black" stroke="none" style="-webkit-tap-highlight-color: rgba(0, 0, 0, 0);"></use></marker><marker id="raphael-marker-endblock33-obj54" markerHeight="3" markerWidth="3" orient="auto" refX="1.5" refY="1.5" style="-webkit-tap-highlight-color: rgba(0, 0, 0, 0);"><use xlink:href="#raphael-marker-block" transform="rotate(180 1.5 1.5) scale(0.6,0.6)" stroke-width="1.6667" fill="black" stroke="none" style="-webkit-tap-highlight-color: rgba(0, 0, 0, 0);"></use></marker><marker id="raphael-marker-endblock33-obj55" markerHeight="3" markerWidth="3" orient="auto" refX="1.5" refY="1.5" style="-webkit-tap-highlight-color: rgba(0, 0, 0, 0);"><use xlink:href="#raphael-marker-block" transform="rotate(180 1.5 1.5) scale(0.6,0.6)" stroke-width="1.6667" fill="black" stroke="none" style="-webkit-tap-highlight-color: rgba(0, 0, 0, 0);"></use></marker><marker id="raphael-marker-endblock33-obj57" markerHeight="3" markerWidth="3" orient="auto" refX="1.5" refY="1.5" style="-webkit-tap-highlight-color: rgba(0, 0, 0, 0);"><use xlink:href="#raphael-marker-block" transform="rotate(180 1.5 1.5) scale(0.6,0.6)" stroke-width="1.6667" fill="black" stroke="none" style="-webkit-tap-highlight-color: rgba(0, 0, 0, 0);"></use></marker><marker id="raphael-marker-endblock33-obj59" markerHeight="3" markerWidth="3" orient="auto" refX="1.5" refY="1.5" style="-webkit-tap-highlight-color: rgba(0, 0, 0, 0);"><use xlink:href="#raphael-marker-block" transform="rotate(180 1.5 1.5) scale(0.6,0.6)" stroke-width="1.6667" fill="black" stroke="none" style="-webkit-tap-highlight-color: rgba(0, 0, 0, 0);"></use></marker><marker id="raphael-marker-endblock33-obj60" markerHeight="3" markerWidth="3" orient="auto" refX="1.5" refY="1.5" style="-webkit-tap-highlight-color: rgba(0, 0, 0, 0);"><use xlink:href="#raphael-marker-block" transform="rotate(180 1.5 1.5) scale(0.6,0.6)" stroke-width="1.6667" fill="black" stroke="none" style="-webkit-tap-highlight-color: rgba(0, 0, 0, 0);"></use></marker><marker id="raphael-marker-endblock33-obj62" markerHeight="3" markerWidth="3" orient="auto" refX="1.5" refY="1.5" style="-webkit-tap-highlight-color: rgba(0, 0, 0, 0);"><use xlink:href="#raphael-marker-block" transform="rotate(180 1.5 1.5) scale(0.6,0.6)" stroke-width="1.6667" fill="black" stroke="none" style="-webkit-tap-highlight-color: rgba(0, 0, 0, 0);"></use></marker><marker id="raphael-marker-endblock33-obj64" markerHeight="3" markerWidth="3" orient="auto" refX="1.5" refY="1.5" style="-webkit-tap-highlight-color: rgba(0, 0, 0, 0);"><use xlink:href="#raphael-marker-block" transform="rotate(180 1.5 1.5) scale(0.6,0.6)" stroke-width="1.6667" fill="black" stroke="none" style="-webkit-tap-highlight-color: rgba(0, 0, 0, 0);"></use></marker><marker id="raphael-marker-endblock33-obj65" markerHeight="3" markerWidth="3" orient="auto" refX="1.5" refY="1.5" style="-webkit-tap-highlight-color: rgba(0, 0, 0, 0);"><use xlink:href="#raphael-marker-block" transform="rotate(180 1.5 1.5) scale(0.6,0.6)" stroke-width="1.6667" fill="black" stroke="none" style="-webkit-tap-highlight-color: rgba(0, 0, 0, 0);"></use></marker></defs><rect x="0" y="0" width="49.5625" height="35.5" rx="20" ry="20" fill="#ffffff" stroke="#000000" style="-webkit-tap-highlight-color: rgba(0, 0, 0, 0);" stroke-width="3" class="flowchart" id="st" transform="matrix(1,0,0,1,125.4063,40.0703)"></rect><text x="10" y="17.75" text-anchor="start" font-family="&quot;Arial&quot;" font-size="14px" stroke="none" fill="#000000" style="-webkit-tap-highlight-color: rgba(0, 0, 0, 0); text-anchor: start; font-family: Arial; font-size: 14px;" id="stt" class="flowchartt" transform="matrix(1,0,0,1,125.4063,40.0703)" stroke-width="1"><tspan dy="4.75" style="-webkit-tap-highlight-color: rgba(0, 0, 0, 0);">Start</tspan></text><rect x="0" y="0" width="108.703125" height="35.5" rx="0" ry="0" fill="#ffffff" stroke="#000000" style="-webkit-tap-highlight-color: rgba(0, 0, 0, 0);" stroke-width="3" class="flowchart" id="op4" transform="matrix(1,0,0,1,95.8359,165.6406)"></rect><text x="10" y="17.75" text-anchor="start" font-family="&quot;Arial&quot;" font-size="14px" stroke="none" fill="#000000" style="-webkit-tap-highlight-color: rgba(0, 0, 0, 0); text-anchor: start; font-family: Arial; font-size: 14px;" id="op4t" class="flowchartt" transform="matrix(1,0,0,1,95.8359,165.6406)" stroke-width="1"><tspan dy="4.75" style="-webkit-tap-highlight-color: rgba(0, 0, 0, 0);">import module</tspan></text><path fill="#ffffff" stroke="#000000" d="M10,34.546875L0,69.09375L197.359375,69.09375L217.359375,0L20,0L10,34.546875" stroke-width="3" id="io6" class="flowchart" style="-webkit-tap-highlight-color: rgba(0, 0, 0, 0);" transform="matrix(1,0,0,1,41.5078,274.4141)"></path><text x="30" y="34.546875" text-anchor="start" font-family="&quot;Arial&quot;" font-size="14px" stroke="none" fill="#000000" style="-webkit-tap-highlight-color: rgba(0, 0, 0, 0); text-anchor: start; font-family: Arial; font-size: 14px;" id="io6t" class="flowchartt" transform="matrix(1,0,0,1,41.5078,274.4141)" stroke-width="1"><tspan dy="-12.046875" style="-webkit-tap-highlight-color: rgba(0, 0, 0, 0);">Request the inputs</tspan><tspan dy="16.8" x="30" style="-webkit-tap-highlight-color: rgba(0, 0, 0, 0);">Enter the smaller number</tspan><tspan dy="16.8" x="30" style="-webkit-tap-highlight-color: rgba(0, 0, 0, 0);">Enter the larger number</tspan></text><rect x="0" y="0" width="160.84375" height="35.5" rx="0" ry="0" fill="#ffffff" stroke="#000000" style="-webkit-tap-highlight-color: rgba(0, 0, 0, 0);" stroke-width="3" class="flowchart" id="op10" transform="matrix(1,0,0,1,69.7656,433.5781)"></rect><text x="10" y="17.75" text-anchor="start" font-family="&quot;Arial&quot;" font-size="14px" stroke="none" fill="#000000" style="-webkit-tap-highlight-color: rgba(0, 0, 0, 0); text-anchor: start; font-family: Arial; font-size: 14px;" id="op10t" class="flowchartt" transform="matrix(1,0,0,1,69.7656,433.5781)" stroke-width="1"><tspan dy="4.75" style="-webkit-tap-highlight-color: rgba(0, 0, 0, 0);">Initialize loop variables</tspan></text><rect x="0" y="0" width="220.75" height="35.5" rx="0" ry="0" fill="#ffffff" stroke="#000000" style="-webkit-tap-highlight-color: rgba(0, 0, 0, 0);" stroke-width="3" class="flowchart" id="op12" transform="matrix(1,0,0,1,39.8125,559.1484)"></rect><text x="10" y="17.75" text-anchor="start" font-family="&quot;Arial&quot;" font-size="14px" stroke="none" fill="#000000" style="-webkit-tap-highlight-color: rgba(0, 0, 0, 0); text-anchor: start; font-family: Arial; font-size: 14px;" id="op12t" class="flowchartt" transform="matrix(1,0,0,1,39.8125,559.1484)" stroke-width="1"><tspan dy="4.75" style="-webkit-tap-highlight-color: rgba(0, 0, 0, 0);">Compute the maximum guesses</tspan></text><path fill="#ffffff" stroke="#000000" d="M48.609375,24.3046875L0,48.609375L97.21875,97.21875L194.4375,48.609375L97.21875,0L0,48.609375" stroke-width="3" id="cond15" class="flowchart" style="-webkit-tap-highlight-color: rgba(0, 0, 0, 0);" transform="matrix(1,0,0,1,52.9688,653.8594)"></path><text x="53.609375" y="48.609375" text-anchor="start" font-family="&quot;Arial&quot;" font-size="14px" stroke="none" fill="#000000" style="-webkit-tap-highlight-color: rgba(0, 0, 0, 0); text-anchor: start; font-family: Arial; font-size: 14px;" id="cond15t" class="flowchartt" transform="matrix(1,0,0,1,52.9688,653.8594)" stroke-width="1"><tspan dy="-3.6484375" style="-webkit-tap-highlight-color: rgba(0, 0, 0, 0);">Loop through till</tspan><tspan dy="16.8" x="53.609375" style="-webkit-tap-highlight-color: rgba(0, 0, 0, 0);">out of guesses</tspan></text><rect x="0" y="0" width="86.15625" height="35.5" rx="0" ry="0" fill="#ffffff" stroke="#000000" style="-webkit-tap-highlight-color: rgba(0, 0, 0, 0);" stroke-width="3" class="flowchart" id="io66" transform="matrix(1,0,0,1,107.1094,841.1484)"></rect><text x="10" y="17.75" text-anchor="start" font-family="&quot;Arial&quot;" font-size="14px" stroke="none" fill="#000000" style="-webkit-tap-highlight-color: rgba(0, 0, 0, 0); text-anchor: start; font-family: Arial; font-size: 14px;" id="io66t" class="flowchartt" transform="matrix(1,0,0,1,107.1094,841.1484)" stroke-width="1"><tspan dy="4.75" style="-webkit-tap-highlight-color: rgba(0, 0, 0, 0);">count += 1</tspan></text><path fill="#ffffff" stroke="#000000" d="M10,17.75L0,35.5L249.5,35.5L269.5,0L20,0L10,17.75" stroke-width="3" id="io68" class="flowchart" style="-webkit-tap-highlight-color: rgba(0, 0, 0, 0);" transform="matrix(1,0,0,1,15.4375,966.7188)"></path><text x="30" y="17.75" text-anchor="start" font-family="&quot;Arial&quot;" font-size="14px" stroke="none" fill="#000000" style="-webkit-tap-highlight-color: rgba(0, 0, 0, 0); text-anchor: start; font-family: Arial; font-size: 14px;" id="io68t" class="flowchartt" transform="matrix(1,0,0,1,15.4375,966.7188)" stroke-width="1"><tspan dy="4.75" style="-webkit-tap-highlight-color: rgba(0, 0, 0, 0);">Output smaller and larger number</tspan></text><rect x="0" y="0" width="235.734375" height="35.5" rx="0" ry="0" fill="#ffffff" stroke="#000000" style="-webkit-tap-highlight-color: rgba(0, 0, 0, 0);" stroke-width="3" class="flowchart" id="op70" transform="matrix(1,0,0,1,32.3203,1092.2891)"></rect><text x="10" y="17.75" text-anchor="start" font-family="&quot;Arial&quot;" font-size="14px" stroke="none" fill="#000000" style="-webkit-tap-highlight-color: rgba(0, 0, 0, 0); text-anchor: start; font-family: Arial; font-size: 14px;" id="op70t" class="flowchartt" transform="matrix(1,0,0,1,32.3203,1092.2891)" stroke-width="1"><tspan dy="4.75" style="-webkit-tap-highlight-color: rgba(0, 0, 0, 0);">Calculate the number your number</tspan></text><path fill="#ffffff" stroke="#000000" d="M10,17.75L0,35.5L223.65625,35.5L243.65625,0L20,0L10,17.75" stroke-width="3" id="io72" class="flowchart" style="-webkit-tap-highlight-color: rgba(0, 0, 0, 0);" transform="matrix(1,0,0,1,28.3594,1217.8594)"></path><text x="30" y="17.75" text-anchor="start" font-family="&quot;Arial&quot;" font-size="14px" stroke="none" fill="#000000" style="-webkit-tap-highlight-color: rgba(0, 0, 0, 0); text-anchor: start; font-family: Arial; font-size: 14px;" id="io72t" class="flowchartt" transform="matrix(1,0,0,1,28.3594,1217.8594)" stroke-width="1"><tspan dy="4.75" style="-webkit-tap-highlight-color: rgba(0, 0, 0, 0);">Output the number calculated</tspan></text><path fill="#ffffff" stroke="#000000" d="M10,17.75L0,35.5L137.65625,35.5L157.65625,0L20,0L10,17.75" stroke-width="3" id="io74" class="flowchart" style="-webkit-tap-highlight-color: rgba(0, 0, 0, 0);" transform="matrix(1,0,0,1,71.3594,1343.4297)"></path><text x="30" y="17.75" text-anchor="start" font-family="&quot;Arial&quot;" font-size="14px" stroke="none" fill="#000000" style="-webkit-tap-highlight-color: rgba(0, 0, 0, 0); text-anchor: start; font-family: Arial; font-size: 14px;" id="io74t" class="flowchartt" transform="matrix(1,0,0,1,71.3594,1343.4297)" stroke-width="1"><tspan dy="4.75" style="-webkit-tap-highlight-color: rgba(0, 0, 0, 0);">Enter =, &lt;, or &gt;: </tspan></text><path fill="#ffffff" stroke="#000000" d="M48.591796875,24.2958984375L0,48.591796875L97.18359375,97.18359375L194.3671875,48.591796875L97.18359375,0L0,48.591796875" stroke-width="3" id="cond77" class="flowchart" style="-webkit-tap-highlight-color: rgba(0, 0, 0, 0);" transform="matrix(1,0,0,1,53.0039,1438.1582)"></path><text x="53.591796875" y="48.591796875" text-anchor="start" font-family="&quot;Arial&quot;" font-size="14px" stroke="none" fill="#000000" style="-webkit-tap-highlight-color: rgba(0, 0, 0, 0); text-anchor: start; font-family: Arial; font-size: 14px;" id="cond77t" class="flowchartt" transform="matrix(1,0,0,1,53.0039,1438.1582)" stroke-width="1"><tspan dy="-3.634765625" style="-webkit-tap-highlight-color: rgba(0, 0, 0, 0);">Test if answer is</tspan><tspan dy="16.8" x="53.591796875" style="-webkit-tap-highlight-color: rgba(0, 0, 0, 0);">equal to "="</tspan></text><path fill="#ffffff" stroke="#000000" d="M10,17.75L0,35.5L209.6875,35.5L229.6875,0L20,0L10,17.75" stroke-width="3" id="io81" class="flowchart" style="-webkit-tap-highlight-color: rgba(0, 0, 0, 0);" transform="matrix(1,0,0,1,35.3438,1625.4121)"></path><text x="30" y="17.75" text-anchor="start" font-family="&quot;Arial&quot;" font-size="14px" stroke="none" fill="#000000" style="-webkit-tap-highlight-color: rgba(0, 0, 0, 0); text-anchor: start; font-family: Arial; font-size: 14px;" id="io81t" class="flowchartt" transform="matrix(1,0,0,1,35.3438,1625.4121)" stroke-width="1"><tspan dy="4.75" style="-webkit-tap-highlight-color: rgba(0, 0, 0, 0);">Hooray, I've got it in X tries!</tspan></text><rect x="0" y="0" width="44.90625" height="35.5" rx="20" ry="20" fill="#ffffff" stroke="#000000" style="-webkit-tap-highlight-color: rgba(0, 0, 0, 0);" stroke-width="3" class="flowchart" id="e" transform="matrix(1,0,0,1,127.7344,1750.9824)"></rect><text x="10" y="17.75" text-anchor="start" font-family="&quot;Arial&quot;" font-size="14px" stroke="none" fill="#000000" style="-webkit-tap-highlight-color: rgba(0, 0, 0, 0); text-anchor: start; font-family: Arial; font-size: 14px;" id="et" class="flowchartt" transform="matrix(1,0,0,1,127.7344,1750.9824)" stroke-width="1"><tspan dy="4.75" style="-webkit-tap-highlight-color: rgba(0, 0, 0, 0);">End</tspan></text><path fill="#ffffff" stroke="#000000" d="M31.3828125,25.91015625L0,51.8203125L62.765625,103.640625L125.53125,51.8203125L62.765625,0L0,51.8203125" stroke-width="3" id="cond88" class="flowchart" style="-webkit-tap-highlight-color: rgba(0, 0, 0, 0);" transform="matrix(1,0,0,1,384.793,1434.9297)"></path><text x="36.3828125" y="51.8203125" text-anchor="start" font-family="&quot;Arial&quot;" font-size="14px" stroke="none" fill="#000000" style="-webkit-tap-highlight-color: rgba(0, 0, 0, 0); text-anchor: start; font-family: Arial; font-size: 14px;" id="cond88t" class="flowchartt" transform="matrix(1,0,0,1,384.793,1434.9297)" stroke-width="1"><tspan dy="-12.0390625" style="-webkit-tap-highlight-color: rgba(0, 0, 0, 0);">Else test</tspan><tspan dy="16.8" x="36.3828125" style="-webkit-tap-highlight-color: rgba(0, 0, 0, 0);">if out of</tspan><tspan dy="16.8" x="36.3828125" style="-webkit-tap-highlight-color: rgba(0, 0, 0, 0);">guesses</tspan></text><path fill="#ffffff" stroke="#000000" d="M10,17.75L0,35.5L268.375,35.5L288.375,0L20,0L10,17.75" stroke-width="3" id="sub92" class="flowchart" style="-webkit-tap-highlight-color: rgba(0, 0, 0, 0);" transform="matrix(1,0,0,1,303.3711,1628.6406)"></path><text x="30" y="17.75" text-anchor="start" font-family="&quot;Arial&quot;" font-size="14px" stroke="none" fill="#000000" style="-webkit-tap-highlight-color: rgba(0, 0, 0, 0); text-anchor: start; font-family: Arial; font-size: 14px;" id="sub92t" class="flowchartt" transform="matrix(1,0,0,1,303.3711,1628.6406)" stroke-width="1"><tspan dy="4.75" style="-webkit-tap-highlight-color: rgba(0, 0, 0, 0);">I'm out of guesses, and you cheated!</tspan></text><path fill="#ffffff" stroke="#000000" d="M38.1796875,25.91015625L0,51.8203125L76.359375,103.640625L152.71875,51.8203125L76.359375,0L0,51.8203125" stroke-width="3" id="cond99" class="flowchart" style="-webkit-tap-highlight-color: rgba(0, 0, 0, 0);" transform="matrix(1,0,0,1,634.1523,1434.9297)"></path><text x="43.1796875" y="51.8203125" text-anchor="start" font-family="&quot;Arial&quot;" font-size="14px" stroke="none" fill="#000000" style="-webkit-tap-highlight-color: rgba(0, 0, 0, 0); text-anchor: start; font-family: Arial; font-size: 14px;" id="cond99t" class="flowchartt" transform="matrix(1,0,0,1,634.1523,1434.9297)" stroke-width="1"><tspan dy="-12.0390625" style="-webkit-tap-highlight-color: rgba(0, 0, 0, 0);">Else test</tspan><tspan dy="16.8" x="43.1796875" style="-webkit-tap-highlight-color: rgba(0, 0, 0, 0);">if answer is</tspan><tspan dy="16.8" x="43.1796875" style="-webkit-tap-highlight-color: rgba(0, 0, 0, 0);">equal to "&lt;"</tspan></text><rect x="0" y="0" width="160.265625" height="35.5" rx="0" ry="0" fill="#ffffff" stroke="#000000" style="-webkit-tap-highlight-color: rgba(0, 0, 0, 0);" stroke-width="3" class="flowchart" id="op103" transform="matrix(1,0,0,1,630.3789,1628.6406)"></rect><text x="10" y="17.75" text-anchor="start" font-family="&quot;Arial&quot;" font-size="14px" stroke="none" fill="#000000" style="-webkit-tap-highlight-color: rgba(0, 0, 0, 0); text-anchor: start; font-family: Arial; font-size: 14px;" id="op103t" class="flowchartt" transform="matrix(1,0,0,1,630.3789,1628.6406)" stroke-width="1"><tspan dy="4.75" style="-webkit-tap-highlight-color: rgba(0, 0, 0, 0);">Change larger number</tspan></text><rect x="0" y="0" width="197.609375" height="35.5" rx="0" ry="0" fill="#ffffff" stroke="#000000" style="-webkit-tap-highlight-color: rgba(0, 0, 0, 0);" stroke-width="3" class="flowchart" id="op107" transform="matrix(1,0,0,1,888.2539,1469)"></rect><text x="10" y="17.75" text-anchor="start" font-family="&quot;Arial&quot;" font-size="14px" stroke="none" fill="#000000" style="-webkit-tap-highlight-color: rgba(0, 0, 0, 0); text-anchor: start; font-family: Arial; font-size: 14px;" id="op107t" class="flowchartt" transform="matrix(1,0,0,1,888.2539,1469)" stroke-width="1"><tspan dy="4.75" style="-webkit-tap-highlight-color: rgba(0, 0, 0, 0);">Else change smaller number</tspan><tspan dy="16.8" x="10" style="-webkit-tap-highlight-color: rgba(0, 0, 0, 0);"></tspan></text><path fill="none" stroke="#000000" d="M150.1875,75.5703125C150.1875,75.5703125,150.1875,142.92361378856003,150.1875,161.14320798478184" stroke-width="3" marker-end="url(#raphael-marker-endblock33-obj38)" style="-webkit-tap-highlight-color: rgba(0, 0, 0, 0);"></path><path fill="none" stroke="#000000" d="M150.1875,201.140625C150.1875,201.140625,150.1875,253.97125937603414,150.1875,269.9133160383335" stroke-width="3" marker-end="url(#raphael-marker-endblock33-obj39)" style="-webkit-tap-highlight-color: rgba(0, 0, 0, 0);"></path><path fill="none" stroke="#000000" d="M150.1875,343.5078125C150.1875,343.5078125,150.1875,410.86111378856003,150.1875,429.08070798478184" stroke-width="3" marker-end="url(#raphael-marker-endblock33-obj40)" style="-webkit-tap-highlight-color: rgba(0, 0, 0, 0);"></path><path fill="none" stroke="#000000" d="M150.1875,469.078125C150.1875,469.078125,150.1875,536.43142628856,150.1875,554.6510204847818" stroke-width="3" marker-end="url(#raphael-marker-endblock33-obj41)" style="-webkit-tap-highlight-color: rgba(0, 0, 0, 0);"></path><path fill="none" stroke="#000000" d="M150.1875,594.6484375C150.1875,594.6484375,150.1875,635.5425836071372,150.1875,649.3603321941191" stroke-width="3" marker-end="url(#raphael-marker-endblock33-obj42)" style="-webkit-tap-highlight-color: rgba(0, 0, 0, 0);"></path><path fill="none" stroke="#000000" d="M150.1875,751.078125C150.1875,751.078125,150.1875,818.43142628856,150.1875,836.6510204847818" stroke-width="3" marker-end="url(#raphael-marker-endblock33-obj43)" style="-webkit-tap-highlight-color: rgba(0, 0, 0, 0);"></path><text x="155.1875" y="761.078125" text-anchor="start" font-family="&quot;Arial&quot;" font-size="14px" stroke="none" fill="#000000" style="-webkit-tap-highlight-color: rgba(0, 0, 0, 0); text-anchor: start; font-family: Arial; font-size: 14px;" stroke-width="1"><tspan dy="4.75" style="-webkit-tap-highlight-color: rgba(0, 0, 0, 0);">yes</tspan></text><path fill="none" stroke="#000000" d="M150.1875,876.6484375C150.1875,876.6484375,150.1875,944.00173878856,150.1875,962.2213329847818" stroke-width="3" marker-end="url(#raphael-marker-endblock33-obj45)" style="-webkit-tap-highlight-color: rgba(0, 0, 0, 0);"></path><path fill="none" stroke="#000000" d="M150.1875,1002.21875C150.1875,1002.21875,150.1875,1069.57205128856,150.1875,1087.7916454847818" stroke-width="3" marker-end="url(#raphael-marker-endblock33-obj46)" style="-webkit-tap-highlight-color: rgba(0, 0, 0, 0);"></path><path fill="none" stroke="#000000" d="M150.1875,1127.7890625C150.1875,1127.7890625,150.1875,1195.14236378856,150.1875,1213.3619579847818" stroke-width="3" marker-end="url(#raphael-marker-endblock33-obj47)" style="-webkit-tap-highlight-color: rgba(0, 0, 0, 0);"></path><path fill="none" stroke="#000000" d="M150.1875,1253.359375C150.1875,1253.359375,150.1875,1320.71267628856,150.1875,1338.9322704847818" stroke-width="3" marker-end="url(#raphael-marker-endblock33-obj48)" style="-webkit-tap-highlight-color: rgba(0, 0, 0, 0);"></path><path fill="none" stroke="#000000" d="M150.1875,1378.9296875C150.1875,1378.9296875,150.1875,1419.8359739724547,150.1875,1433.6578246750614" stroke-width="3" marker-end="url(#raphael-marker-endblock33-obj49)" style="-webkit-tap-highlight-color: rgba(0, 0, 0, 0);"></path><path fill="none" stroke="#000000" d="M150.1875,1535.341796875C150.1875,1535.341796875,150.1875,1602.69509816356,150.1875,1620.9146923597818" stroke-width="3" marker-end="url(#raphael-marker-endblock33-obj50)" style="-webkit-tap-highlight-color: rgba(0, 0, 0, 0);"></path><text x="155.1875" y="1545.341796875" text-anchor="start" font-family="&quot;Arial&quot;" font-size="14px" stroke="none" fill="#000000" style="-webkit-tap-highlight-color: rgba(0, 0, 0, 0); text-anchor: start; font-family: Arial; font-size: 14px;" stroke-width="1"><tspan dy="4.763671875" style="-webkit-tap-highlight-color: rgba(0, 0, 0, 0);">yes</tspan></text><path fill="none" stroke="#000000" d="M247.37109375,1486.75C247.37109375,1486.75,356.6150731295347,1486.75,380.2988264715823,1486.75" stroke-width="3" marker-end="url(#raphael-marker-endblock33-obj52)" style="-webkit-tap-highlight-color: rgba(0, 0, 0, 0);"></path><text x="252.37109375" y="1476.75" text-anchor="start" font-family="&quot;Arial&quot;" font-size="14px" stroke="none" fill="#000000" style="-webkit-tap-highlight-color: rgba(0, 0, 0, 0); text-anchor: start; font-family: Arial; font-size: 14px;" stroke-width="1"><tspan dy="4.75" style="-webkit-tap-highlight-color: rgba(0, 0, 0, 0);">no</tspan></text><path fill="none" stroke="#000000" d="M150.1875,1660.912109375C150.1875,1660.912109375,150.1875,1728.26541066356,150.1875,1746.4850048597818" stroke-width="3" marker-end="url(#raphael-marker-endblock33-obj54)" style="-webkit-tap-highlight-color: rgba(0, 0, 0, 0);"></path><path fill="none" stroke="#000000" d="M447.55859375,1538.5703125C447.55859375,1538.5703125,447.55859375,1605.92361378856,447.55859375,1624.1432079847818" stroke-width="3" marker-end="url(#raphael-marker-endblock33-obj55)" style="-webkit-tap-highlight-color: rgba(0, 0, 0, 0);"></path><text x="452.55859375" y="1548.5703125" text-anchor="start" font-family="&quot;Arial&quot;" font-size="14px" stroke="none" fill="#000000" style="-webkit-tap-highlight-color: rgba(0, 0, 0, 0); text-anchor: start; font-family: Arial; font-size: 14px;" stroke-width="1"><tspan dy="4.7578125" style="-webkit-tap-highlight-color: rgba(0, 0, 0, 0);">yes</tspan></text><path fill="none" stroke="#000000" d="M510.32421875,1486.75C510.32421875,1486.75,607.418692481704,1486.75,629.6537062415523,1486.75" stroke-width="3" marker-end="url(#raphael-marker-endblock33-obj57)" style="-webkit-tap-highlight-color: rgba(0, 0, 0, 0);"></path><text x="515.32421875" y="1476.75" text-anchor="start" font-family="&quot;Arial&quot;" font-size="14px" stroke="none" fill="#000000" style="-webkit-tap-highlight-color: rgba(0, 0, 0, 0); text-anchor: start; font-family: Arial; font-size: 14px;" stroke-width="1"><tspan dy="4.75" style="-webkit-tap-highlight-color: rgba(0, 0, 0, 0);">no</tspan></text><path fill="none" stroke="#000000" d="M447.55859375,1664.140625C447.55859375,1664.140625,447.55859375,1725.982421875,447.55859375,1725.982421875C447.55859375,1725.982421875,150.1875,1725.982421875,150.1875,1725.982421875C150.1875,1725.982421875,150.1875,1739.2863931655884,150.1875,1746.484049508348" stroke-width="3" marker-end="url(#raphael-marker-endblock33-obj59)" style="-webkit-tap-highlight-color: rgba(0, 0, 0, 0);"></path><path fill="none" stroke="#000000" d="M710.51171875,1538.5703125C710.51171875,1538.5703125,710.51171875,1605.92361378856,710.51171875,1624.1432079847818" stroke-width="3" marker-end="url(#raphael-marker-endblock33-obj60)" style="-webkit-tap-highlight-color: rgba(0, 0, 0, 0);"></path><text x="715.51171875" y="1548.5703125" text-anchor="start" font-family="&quot;Arial&quot;" font-size="14px" stroke="none" fill="#000000" style="-webkit-tap-highlight-color: rgba(0, 0, 0, 0); text-anchor: start; font-family: Arial; font-size: 14px;" stroke-width="1"><tspan dy="4.7578125" style="-webkit-tap-highlight-color: rgba(0, 0, 0, 0);">yes</tspan></text><path fill="none" stroke="#000000" d="M786.87109375,1486.75C786.87109375,1486.75,864.1029603485949,1486.75,883.750324849507,1486.75" stroke-width="3" marker-end="url(#raphael-marker-endblock33-obj62)" style="-webkit-tap-highlight-color: rgba(0, 0, 0, 0);"></path><text x="791.87109375" y="1476.75" text-anchor="start" font-family="&quot;Arial&quot;" font-size="14px" stroke="none" fill="#000000" style="-webkit-tap-highlight-color: rgba(0, 0, 0, 0); text-anchor: start; font-family: Arial; font-size: 14px;" stroke-width="1"><tspan dy="4.75" style="-webkit-tap-highlight-color: rgba(0, 0, 0, 0);">no</tspan></text><path fill="none" stroke="#000000" d="M790.64453125,1646.390625C790.64453125,1646.390625,815.64453125,1646.390625,815.64453125,1646.390625C815.64453125,1646.390625,815.64453125,1492.75,815.64453125,1492.75C815.64453125,1492.75,827.64453125,1486.75,815.64453125,1480.75C815.64453125,1480.75,815.64453125,628.859375,815.64453125,628.859375C815.64453125,628.859375,150.1875,628.859375,150.1875,628.859375C150.1875,628.859375,150.1875,642.1633462905884,150.1875,649.3610026333481" stroke-width="3" marker-end="url(#raphael-marker-endblock33-obj64)" style="-webkit-tap-highlight-color: rgba(0, 0, 0, 0);"></path><path fill="none" stroke="#000000" d="M1085.86328125,1486.75C1085.86328125,1486.75,1110.86328125,1486.75,1110.86328125,1486.75C1110.86328125,1486.75,1110.86328125,628.859375,1110.86328125,628.859375C1110.86328125,628.859375,150.1875,628.859375,150.1875,628.859375C150.1875,628.859375,150.1875,642.1633462905884,150.1875,649.3610026333481" stroke-width="3" marker-end="url(#raphael-marker-endblock33-obj65)" style="-webkit-tap-highlight-color: rgba(0, 0, 0, 0);"></path></svg>